# xmcd CD database file
# Copyright (C) 1993-1996 Ti Kan
#
# Track frame offsets:
#	187
#	15215
#	33457
#	64785
#	80327
#	95845
#	108887
#	125310
#	145307
#	160155
#	173917
#	193307
#
# Disc length: 2775 seconds
#
# Revision: 1
# Processed by: cddbd v1.4b41PL1 Copyright (c) Steve Scherf et al.
# Submitted via: CDValet v3.31 - Copyright (c) 1997 Greg Leichner
#
DISCID=9a0ad50c
DTITLE=Undisputed Truth -  Best Of The  Undisputed Truth
DYEAR=1900
DGENRE=
TTITLE0=Smiling Faces Sometimes
TTITLE1=Save My Love For  A Rainy Day
TTITLE2=You Make Your Own Heaven And Hell Right Here On Earth
TTITLE3=What Is It
TTITLE4=Papa Was A Rollin' Stone
TTITLE5=The Girl's Alright With Me
TTITLE6=Mama I Got A Brand Newthing (Don't Say No)
TTITLE7=Law Of The Land
TTITLE8=Help Yourself
TTITLE9=I'm A Fool For You
TTITLE10=UFO'S
TTITLE11=Higher Than High
EXTD=
EXTT0=
EXTT1=
EXTT2=
EXTT3=
EXTT4=
EXTT5=
EXTT6=
EXTT7=
EXTT8=
EXTT9=
EXTT10=
EXTT11=
PLAYORDER=
